# xmcd
#
# Track frame offsets:
#	150
#	15137
#	45935
#	64050
#
# Disc length: 1055 seconds
# Revision: 0
# Processed by: cddbd v1.5.2PL0 Copyright (c) Steve Scherf et al.
# Submitted via: dBpowerAMP V12.0
#
DISCID=1f041d04
DTITLE=Northern Line - Run For Your Life [Single Part 2]
DYEAR=1999
DGENRE=House
TTITLE0=Run For Your Life [Radio Mix]
TTITLE1=Run For Your Life [Jewels and Stone 12" Mix]
TTITLE2=Run For Your Life [Jewels and Stone 7" Mix]
TTITLE3=Run For Your Life [Instrumental]
EXTD=
EXTT0=
EXTT1=
EXTT2=
EXTT3=
PLAYORDER=
